<svg width="24" height="24" viewBox="0 0 24 24" fill="#7F7F7F" xmlns="http://www.w3.org/2000/svg"><path d="M11 9.37566V5.63248C11 4.46996 10.4729 4 9.16353 4H5.83647C4.52706 4 4 4.46996 4 5.63248V9.36741C4 10.5382 4.52706 10.9999 5.83647 10.9999H9.16353C10.4729 11.0081 11 10.5382 11 9.37566Z" fill="#7F7F7F"></path><path d="M20 9.37566V5.63248C20 4.46996 19.4729 4 18.1635 4H14.8365C13.5271 4 13 4.46996 13 5.63248V9.36741C13 10.5382 13.5271 10.9999 14.8365 10.9999H18.1635C19.4729 11.0081 20 10.5382 20 9.37566Z" fill="#7F7F7F"></path><path d="M11 18.3757V14.6325C11 13.47 10.4729 13 9.16353 13H5.83647C4.52706 13 4 13.47 4 14.6325V18.3674C4 19.5382 4.52706 19.9999 5.83647 19.9999H9.16353C10.4729 20.0081 11 19.5382 11 18.3757Z" fill="#7F7F7F"></path><path d="M20 18.3757V14.6325C20 13.47 19.4729 13 18.1635 13H14.8365C13.5271 13 13 13.47 13 14.6325V18.3674C13 19.5382 13.5271 19.9999 14.8365 19.9999H18.1635C19.4729 20.0081 20 19.5382 20 18.3757Z" fill="#7F7F7F"></path></svg>