<svg width="24" height="28" viewBox="0 0 24 28" fill="none" xmlns="http://www.w3.org/2000/svg"><path fill-rule="evenodd" clip-rule="evenodd" d="M0.11565 19.7536L1.14085 11.4941C1.76539 8.54684 3.53297 7.33398 5.21806 7.33398H18.7577C20.4664 7.33398 22.2929 8.46194 22.8231 11.4941L23.8601 19.7536C24.7086 25.8179 21.5858 27.334 17.5086 27.334H6.45537C2.38994 27.334 -0.638515 25.1387 0.11565 19.7536ZM15.8708 14.1987C16.5216 14.1987 17.0492 13.6557 17.0492 12.9858C17.0492 12.316 16.5216 11.773 15.8708 11.773C15.22 11.773 14.6924 12.316 14.6924 12.9858C14.6924 13.6557 15.22 14.1987 15.8708 14.1987ZM9.33065 12.9858C9.33065 13.6557 8.80307 14.1987 8.15227 14.1987C7.50146 14.1987 6.97388 13.6557 6.97388 12.9858C6.97388 12.316 7.50146 11.773 8.15227 11.773C8.80307 11.773 9.33065 12.316 9.33065 12.9858Z" fill="currentColor"></path><path opacity="0.4" d="M5.36819 7.03276C5.36401 7.13618 5.38388 7.23916 5.42626 7.33366H7.34241C7.37952 7.23758 7.39918 7.1357 7.40047 7.03276C7.40047 4.47609 9.48021 2.4035 12.0457 2.4035C14.6112 2.4035 16.6909 4.47609 16.6909 7.03276C16.6733 7.13229 16.6733 7.23412 16.6909 7.33366H18.6535C18.6711 7.23412 18.6711 7.13229 18.6535 7.03276C18.5044 3.47487 15.5667 0.666992 11.9934 0.666992C8.42016 0.666992 5.48247 3.47487 5.33335 7.03276H5.36819Z" fill="currentColor"></path></svg>