<svg width="20" height="20" viewBox="0 0 20 20" fill="none" xmlns="http://www.w3.org/2000/svg"><path fill-rule="evenodd" clip-rule="evenodd" d="M15.5756 13.3024L10.8339 15.5057V9.90908L15.8339 7.58658V12.9491C15.8339 13.0941 15.7356 13.2291 15.5756 13.3024ZM4.41972 13.3032C4.26222 13.2299 4.16556 13.0949 4.16722 12.9432V7.58658L9.16722 9.90907V15.5074L4.41972 13.3032ZM9.75639 4.21991C9.83222 4.18407 9.91639 4.16657 10.0006 4.16657C10.0839 4.16657 10.1681 4.18407 10.2439 4.21991L14.6847 6.28157L10.0006 8.45824L5.31556 6.28157L9.75639 4.21991ZM17.2139 6.04907C17.2114 6.04241 17.2122 6.03491 17.2089 6.02824C17.2064 6.02157 17.1997 6.01741 17.1956 6.01074C17.1572 5.94741 17.1106 5.89157 17.0664 5.83324C17.0406 5.80491 17.0197 5.77324 16.9914 5.74907C16.7956 5.51907 16.5647 5.31657 16.2781 5.18407L10.9447 2.70657C10.9439 2.70657 10.9431 2.70657 10.9431 2.70574C10.3439 2.42907 9.65639 2.42991 9.05556 2.70657L3.72472 5.18324C3.43806 5.31574 3.20639 5.51741 3.01056 5.74741C2.97972 5.77324 2.95722 5.80824 2.92972 5.83907C2.88639 5.89491 2.84222 5.94907 2.80556 6.00907C2.80139 6.01657 2.79472 6.02157 2.79139 6.02824C2.78806 6.03574 2.78889 6.04324 2.78556 6.05074C2.60972 6.35241 2.50056 6.69157 2.50056 7.04824V12.9374C2.49389 13.7291 2.97056 14.4657 3.71556 14.8141L9.04806 17.2907C9.34972 17.4316 9.67306 17.5016 9.99722 17.5016C10.3206 17.5016 10.6439 17.4316 10.9447 17.2916L16.2756 14.8149C17.0189 14.4716 17.4997 13.7399 17.5006 12.9499V7.04741C17.4997 6.69074 17.3906 6.35157 17.2139 6.04907Z" fill="#7F7F7F"></path><mask id="mask0_823_40905" maskUnits="userSpaceOnUse" x="2" y="2" width="16" height="16" style="mask-type: alpha;"><path fill-rule="evenodd" clip-rule="evenodd" d="M15.5756 13.3024L10.8339 15.5057V9.90908L15.8339 7.58658V12.9491C15.8339 13.0941 15.7356 13.2291 15.5756 13.3024ZM4.41972 13.3032C4.26222 13.2299 4.16556 13.0949 4.16722 12.9432V7.58658L9.16722 9.90907V15.5074L4.41972 13.3032ZM9.75639 4.21991C9.83222 4.18407 9.91639 4.16657 10.0006 4.16657C10.0839 4.16657 10.1681 4.18407 10.2439 4.21991L14.6847 6.28157L10.0006 8.45824L5.31556 6.28157L9.75639 4.21991ZM17.2139 6.04907C17.2114 6.04241 17.2122 6.03491 17.2089 6.02824C17.2064 6.02157 17.1997 6.01741 17.1956 6.01074C17.1572 5.94741 17.1106 5.89157 17.0664 5.83324C17.0406 5.80491 17.0197 5.77324 16.9914 5.74907C16.7956 5.51907 16.5647 5.31657 16.2781 5.18407L10.9447 2.70657C10.9439 2.70657 10.9431 2.70657 10.9431 2.70574C10.3439 2.42907 9.65639 2.42991 9.05556 2.70657L3.72472 5.18324C3.43806 5.31574 3.20639 5.51741 3.01056 5.74741C2.97972 5.77324 2.95722 5.80824 2.92972 5.83907C2.88639 5.89491 2.84222 5.94907 2.80556 6.00907C2.80139 6.01657 2.79472 6.02157 2.79139 6.02824C2.78806 6.03574 2.78889 6.04324 2.78556 6.05074C2.60972 6.35241 2.50056 6.69157 2.50056 7.04824V12.9374C2.49389 13.7291 2.97056 14.4657 3.71556 14.8141L9.04806 17.2907C9.34972 17.4316 9.67306 17.5016 9.99722 17.5016C10.3206 17.5016 10.6439 17.4316 10.9447 17.2916L16.2756 14.8149C17.0189 14.4716 17.4997 13.7399 17.5006 12.9499V7.04741C17.4997 6.69074 17.3906 6.35157 17.2139 6.04907Z" fill="white"></path></mask><g mask="url(#mask0_823_40905)"><rect width="20" height="20" fill="#7F7F7F"></rect></g></svg>