<svg width="32" height="32" viewBox="0 0 32 32" fill="none" xmlns="http://www.w3.org/2000/svg"><path d="M16.0265 2.66602C8.27984 2.66602 2.6665 8.98602 2.6665 15.9993C2.6665 18.2393 3.31984 20.546 4.4665 22.6527C4.67984 22.9993 4.7065 23.4394 4.55984 23.8527L3.6665 26.8393C3.4665 27.5593 4.07984 28.0927 4.75984 27.8793L7.45317 27.0793C8.1865 26.8393 8.75984 27.146 9.44117 27.5593C11.3878 28.706 13.8132 29.2927 15.9998 29.2927C22.6132 29.2927 29.3332 24.186 29.3332 15.9593C29.3332 8.86602 23.5998 2.66602 16.0265 2.66602" fill="#545454" opacity="0.4"></path><path fill-rule="evenodd" clip-rule="evenodd" d="M15.974 17.7201C15.0273 17.7068 14.2673 16.9468 14.2673 16.0001C14.2673 15.0668 15.0406 14.2935 15.974 14.3068C16.9206 14.3068 17.6806 15.0668 17.6806 16.0135C17.6806 16.9468 16.9206 17.7201 15.974 17.7201ZM9.82678 17.7201C8.89345 17.7201 8.12012 16.9468 8.12012 16.0134C8.12012 15.0668 8.88012 14.3068 9.82678 14.3068C10.7735 14.3068 11.5335 15.0668 11.5335 16.0134C11.5335 16.9468 10.7735 17.7068 9.82678 17.7201ZM20.4136 16.0134C20.4136 16.9468 21.1736 17.7201 22.1202 17.7201C23.0669 17.7201 23.8269 16.9468 23.8269 16.0134C23.8269 15.0668 23.0669 14.3068 22.1202 14.3068C21.1736 14.3068 20.4136 15.0668 20.4136 16.0134Z" fill="#545454"></path></svg>