<svg width="16" height="16" fill="none" xmlns="http://www.w3.org/2000/svg"><path fill-rule="evenodd" clip-rule="evenodd" d="M7.964 7.48A2.174 2.174 0 0 0 5.796 9.65c0 1.193.975 2.168 2.168 2.168a2.168 2.168 0 0 0 0-4.337zm.162 2.253L7.059 10.8a.483.483 0 0 1-.695 0 .483.483 0 0 1 0-.695l1.067-1.067c.19-.19.498-.19.695 0 .19.19.19.506 0 .695z" fill="#BFBFBF"></path><path d="M11.908 2.962c.8-.316 1.46-.477 1.965-.99a.425.425 0 0 0 0-.427.405.405 0 0 0-.351-.211H2.42a.437.437 0 0 0-.365.21.441.441 0 0 0 0 .429c.344.512 1.165.673 1.965.989.898.358 2.365.674 2.365.674v.344H5.276c-.73 0-1.354.554-1.445 1.29l-1.684 6.197c-.057.414-.113 1.327.357 1.93.646.821 2.197 1.27 2.61 1.27h5.7c.413 0 1.964-.449 2.617-1.27.463-.603.4-1.516.344-1.93L12.09 5.271a1.457 1.457 0 0 0-1.445-1.291H9.55v-.344s1.467-.316 2.358-.674zm-.94 6.702a3.002 3.002 0 1 1-6.007 0 3.004 3.004 0 1 1 6.007 0z" fill="#BFBFBF"></path></svg>