<svg width="20" height="20" viewBox="0 0 20 20" fill="none" xmlns="http://www.w3.org/2000/svg"><path d="M18.3332 13.4917C18.3332 16.525 16.5248 18.3333 13.4915 18.3333H12.4998C12.0415 18.3333 11.6665 17.9583 11.6665 17.5V12.6917C11.6665 12.4667 11.8498 12.275 12.0748 12.275L13.5415 12.25C13.6582 12.2417 13.7582 12.1583 13.7832 12.0417L14.0749 10.45C14.0998 10.3 13.9832 10.1583 13.8248 10.1583L12.0498 10.1833C11.8165 10.1833 11.6332 10 11.6248 9.77501L11.5915 7.73334C11.5915 7.6 11.6998 7.48335 11.8415 7.48335L13.8415 7.45001C13.9832 7.45001 14.0915 7.34168 14.0915 7.20002L14.0582 5.2C14.0582 5.05833 13.9498 4.95001 13.8082 4.95001L11.5582 4.98335C10.1748 5.00835 9.07485 6.14167 9.09985 7.525L9.14151 9.81667C9.14984 10.05 8.96651 10.2333 8.73318 10.2417L7.73317 10.2583C7.5915 10.2583 7.48318 10.3667 7.48318 10.5083L7.50818 12.0917C7.50818 12.2333 7.6165 12.3417 7.75817 12.3417L8.75818 12.325C8.99151 12.325 9.17483 12.5083 9.18316 12.7333L9.25816 17.4833C9.26649 17.95 8.89149 18.3333 8.42483 18.3333H6.50817C3.47484 18.3333 1.6665 16.525 1.6665 13.4833V6.50834C1.6665 3.475 3.47484 1.66667 6.50817 1.66667H13.4915C16.5248 1.66667 18.3332 3.475 18.3332 6.50834V13.4917Z" fill="#3B5998"></path></svg>