<svg width="24" height="24" fill="none" xmlns="http://www.w3.org/2000/svg"><path fill-rule="evenodd" clip-rule="evenodd" d="M12 6a1 1 0 1 1 0-2 1 1 0 0 1 0 2zm3-1c0-1.654-1.346-3-3-3S9 3.346 9 5c0 1.302.839 2.401 2 2.815V21a1 1 0 1 0 2 0V7.815A2.995 2.995 0 0 0 15 5zM6 18a1 1 0 1 1 0-2 1 1 0 0 1 0 2zm1-3.815V3a1 1 0 1 0-2 0v11.185A2.995 2.995 0 0 0 3 17c0 1.302.839 2.401 2 2.815V21a1 1 0 1 0 2 0v-1.185A2.995 2.995 0 0 0 9 17a2.995 2.995 0 0 0-2-2.815zM18 14a1 1 0 1 1 0-2 1 1 0 0 1 0 2zm3-1a2.995 2.995 0 0 0-2-2.815V3a1 1 0 1 0-2 0v7.185A2.995 2.995 0 0 0 15 13c0 1.302.839 2.401 2 2.815V21a1 1 0 1 0 2 0v-5.185A2.995 2.995 0 0 0 21 13z" fill="#16884A"></path><mask id="a" maskUnits="userSpaceOnUse" x="3" y="2" width="18" height="20" style="mask-type: alpha;"><path fill-rule="evenodd" clip-rule="evenodd" d="M12 6a1 1 0 1 1 0-2 1 1 0 0 1 0 2zm3-1c0-1.654-1.346-3-3-3S9 3.346 9 5c0 1.302.839 2.401 2 2.815V21a1 1 0 1 0 2 0V7.815A2.995 2.995 0 0 0 15 5zM6 18a1 1 0 1 1 0-2 1 1 0 0 1 0 2zm1-3.815V3a1 1 0 1 0-2 0v11.185A2.995 2.995 0 0 0 3 17c0 1.302.839 2.401 2 2.815V21a1 1 0 1 0 2 0v-1.185A2.995 2.995 0 0 0 9 17a2.995 2.995 0 0 0-2-2.815zM18 14a1 1 0 1 1 0-2 1 1 0 0 1 0 2zm3-1a2.995 2.995 0 0 0-2-2.815V3a1 1 0 1 0-2 0v7.185A2.995 2.995 0 0 0 15 13c0 1.302.839 2.401 2 2.815V21a1 1 0 1 0 2 0v-5.185A2.995 2.995 0 0 0 21 13z" fill="#fff"></path></mask><g mask="url(#a)"><path fill="#16884A" d="M0 0h24v24H0z"></path></g></svg>