<svg width="16" height="16" fill="none" xmlns="http://www.w3.org/2000/svg"><path d="M12.827 3.72h-.266l-2.254-2.253a.47.47 0 0 0-.66 0 .47.47 0 0 0 0 .66l1.594 1.593H4.76l1.593-1.593a.47.47 0 0 0 0-.66.47.47 0 0 0-.66 0L3.447 3.72h-.266c-.6 0-1.847 0-1.847 1.707 0 .647.133 1.073.413 1.353.16.167.354.254.56.3.194.047.4.054.6.054h10.187c.207 0 .4-.014.587-.054.56-.133.986-.533.986-1.653 0-1.707-1.246-1.707-1.84-1.707zM12.726 8H3.272a.666.666 0 0 0-.66.773l.56 3.427c.187 1.147.687 2.467 2.907 2.467h3.74c2.247 0 2.647-1.127 2.887-2.387l.673-3.487A.664.664 0 0 0 12.726 8zm-2.807 2.7-2.167 2a.496.496 0 0 1-.693-.013l-1-1a.503.503 0 0 1 0-.707.511.511 0 0 1 .713 0l.66.66 1.814-1.673a.497.497 0 1 1 .673.733z" fill="#BFBFBF"></path></svg>