<svg width="20" height="20" viewBox="0 0 20 20" fill="none" xmlns="http://www.w3.org/2000/svg"><path fill-rule="evenodd" clip-rule="evenodd" d="M6.01622 4.99992C5.29622 4.99992 4.62122 5.27825 4.11622 5.78409C3.06788 6.83408 3.06788 8.54325 4.11705 9.59492L9.99955 15.4874L15.8829 9.59492C16.9321 8.54325 16.9321 6.83408 15.8829 5.78409C14.8729 4.77159 13.0929 4.77325 12.0829 5.78409L10.5896 7.27992C10.2762 7.59408 9.72288 7.59408 9.40955 7.27992L7.91622 5.78325C7.41122 5.27825 6.73705 4.99992 6.01622 4.99992ZM9.99955 17.4999C9.77872 17.4999 9.56622 17.4124 9.41038 17.2549L2.93705 10.7716C1.24038 9.07158 1.24038 6.30575 2.93705 4.60575C3.75705 3.78575 4.85038 3.33325 6.01622 3.33325C7.18205 3.33325 8.27622 3.78575 9.09538 4.60575L9.99955 5.51159L10.9037 4.60659C11.7237 3.78575 12.8171 3.33325 13.9837 3.33325C15.1487 3.33325 16.2429 3.78575 17.0621 4.60575C18.7596 6.30575 18.7596 9.07158 17.0629 10.7716L10.5896 17.2558C10.4329 17.4124 10.2212 17.4999 9.99955 17.4999Z" fill="#FF4842"></path><mask id="mask0_765_10981" maskUnits="userSpaceOnUse" x="1" y="3" width="18" height="15" style="mask-type: alpha;"><path fill-rule="evenodd" clip-rule="evenodd" d="M6.01622 4.99992C5.29622 4.99992 4.62122 5.27825 4.11622 5.78409C3.06788 6.83408 3.06788 8.54325 4.11705 9.59492L9.99955 15.4874L15.8829 9.59492C16.9321 8.54325 16.9321 6.83408 15.8829 5.78409C14.8729 4.77159 13.0929 4.77325 12.0829 5.78409L10.5896 7.27992C10.2762 7.59408 9.72288 7.59408 9.40955 7.27992L7.91622 5.78325C7.41122 5.27825 6.73705 4.99992 6.01622 4.99992ZM9.99955 17.4999C9.77872 17.4999 9.56622 17.4124 9.41038 17.2549L2.93705 10.7716C1.24038 9.07158 1.24038 6.30575 2.93705 4.60575C3.75705 3.78575 4.85038 3.33325 6.01622 3.33325C7.18205 3.33325 8.27622 3.78575 9.09538 4.60575L9.99955 5.51159L10.9037 4.60659C11.7237 3.78575 12.8171 3.33325 13.9837 3.33325C15.1487 3.33325 16.2429 3.78575 17.0621 4.60575C18.7596 6.30575 18.7596 9.07158 17.0629 10.7716L10.5896 17.2558C10.4329 17.4124 10.2212 17.4999 9.99955 17.4999Z" fill="white"></path></mask><g mask="url(#mask0_765_10981)"><rect width="20" height="20" fill="#FF4842"></rect></g></svg>