<svg width="16" height="16" viewBox="0 0 16 16" fill="none" xmlns="http://www.w3.org/2000/svg"><path d="M14.2551 5.5308C13.4925 2.17147 10.567 0.666016 8.00974 0.666016H8.00317C5.43929 0.666016 2.52042 2.17147 1.75784 5.52423C0.91636 9.19254 3.11209 12.2429 5.10402 14.1625C5.8929 14.9185 6.92503 15.3327 8.00317 15.3327C9.08131 15.3327 10.1069 14.9185 10.8957 14.1625C12.8877 12.2495 15.0834 9.19911 14.2551 5.5308ZM9.85047 13.0646C9.35084 13.5511 8.69344 13.8141 8.00317 13.8141C7.31289 13.8141 6.66207 13.5511 6.16244 13.0646C4.44662 11.4277 2.55329 8.84411 3.23699 5.8595C3.85495 3.14443 6.18873 2.17804 8.00317 2.17804C9.8176 2.17804 12.158 3.14443 12.7825 5.8595C13.453 8.83754 11.5597 11.4211 9.85047 13.0646Z" fill="#BFBFBF"></path><path d="M8.00291 4.07812C6.45144 4.07812 5.1958 5.33376 5.1958 6.87866C5.1958 8.42356 6.45144 9.68577 8.00291 9.68577C9.54781 9.68577 10.81 8.43013 10.81 6.88524C10.81 5.34034 9.54781 4.07812 8.00291 4.07812ZM8.00291 8.18032C7.28634 8.18032 6.70783 7.60181 6.70783 6.88524C6.70783 6.16867 7.28634 5.59015 8.00291 5.59015C8.71291 5.59015 9.298 6.16867 9.298 6.88524C9.298 7.60181 8.71291 8.18032 8.00291 8.18032Z" fill="#BFBFBF"></path></svg>