<svg width="20" height="20" fill="none" xmlns="http://www.w3.org/2000/svg"><path fill-rule="evenodd" clip-rule="evenodd" d="M10 11.667H7.5A.834.834 0 0 1 7.5 10H10a.834.834 0 0 1 0 1.667zm-3.333 2.5c0-.46.373-.833.833-.833h5a.833.833 0 1 1 0 1.666h-5a.834.834 0 0 1-.833-.833zm7.87 2.5H5.463c-.255 0-.463-.187-.463-.417V3.75c0-.23.208-.416.463-.416H10v2.625c0 1.31 1.014 2.375 2.262 2.375H15v7.916c0 .23-.207.417-.463.417zm-2.87-12.518 2.285 2.518h-1.69c-.329 0-.595-.318-.595-.708v-1.81zM16.45 6.94l-4.536-5a.833.833 0 0 0-.618-.273H5.463c-1.175 0-2.13.935-2.13 2.083v12.5c0 1.149.955 2.084 2.13 2.084h9.074c1.174 0 2.13-.935 2.13-2.084V7.5a.833.833 0 0 0-.217-.56z" fill="currentColor"></path></svg>