<svg width="28" height="28" viewBox="0 0 28 28" fill="none" xmlns="http://www.w3.org/2000/svg"><path d="M7.70016 4.66634C6.02716 4.66634 4.66683 6.02667 4.66683 7.69967C4.66683 16.319 11.6797 23.333 20.3002 23.333C21.972 23.333 23.3335 21.9727 23.3335 20.2997C23.3335 20.1702 23.3253 20.043 23.309 19.917L17.919 18.6803C17.8117 18.8857 17.6938 19.1085 17.5865 19.3162C17.0545 20.3312 16.6695 21.0685 15.6872 20.673C11.8302 19.3197 8.68133 16.1697 7.3105 12.266C6.894 11.3502 7.68733 10.9348 8.693 10.4098C8.89716 10.3025 9.11766 10.187 9.3195 10.082L8.08283 4.69084C7.95333 4.67451 7.82733 4.66634 7.70016 4.66634ZM20.3002 25.6663C10.3928 25.6663 2.3335 17.607 2.3335 7.69967C2.3335 4.73984 4.74033 2.33301 7.70016 2.33301C8.0035 2.33301 8.30333 2.35867 8.59383 2.40884C8.87733 2.45434 9.162 2.52667 9.43966 2.62234C9.81883 2.75417 10.1047 3.07267 10.1945 3.46467L11.7917 10.4227C11.8803 10.8053 11.7695 11.2067 11.4965 11.4913C11.3378 11.657 11.3343 11.6605 9.88766 12.4177C11.059 14.954 13.0948 16.9828 15.5798 18.1145C16.3382 16.6667 16.3428 16.662 16.5085 16.5033C16.7932 16.2303 17.1968 16.1242 17.5772 16.2082L24.5363 17.8053C24.9272 17.8952 25.2457 18.1798 25.3763 18.559C25.472 18.8343 25.5443 19.119 25.5922 19.4118C25.6412 19.7 25.6668 19.9987 25.6668 20.2997C25.6668 23.2595 23.2588 25.6663 20.3002 25.6663Z" fill="currentColor"></path></svg>