<svg class="ProductControl_add__2TG4X" width="28" height="28" viewBox="0 0 28 28" fill="none" xmlns="http://www.w3.org/2000/svg"><path fill-rule="evenodd" clip-rule="evenodd" d="M17.4999 15.1663H15.1666V17.4997C15.1666 18.1413 14.6416 18.6663 13.9999 18.6663C13.3583 18.6663 12.8333 18.1413 12.8333 17.4997V15.1663H10.4999C9.85825 15.1663 9.33325 14.6413 9.33325 13.9997C9.33325 13.358 9.85825 12.833 10.4999 12.833H12.8333V10.4997C12.8333 9.85801 13.3583 9.33301 13.9999 9.33301C14.6416 9.33301 15.1666 9.85801 15.1666 10.4997V12.833H17.4999C18.1416 12.833 18.6666 13.358 18.6666 13.9997C18.6666 14.6413 18.1416 15.1663 17.4999 15.1663ZM13.9999 2.33301C7.56692 2.33301 2.33325 7.56667 2.33325 13.9997C2.33325 20.4327 7.56692 25.6663 13.9999 25.6663C20.4329 25.6663 25.6666 20.4327 25.6666 13.9997C25.6666 7.56667 20.4329 2.33301 13.9999 2.33301Z" fill="currentColor"></path></svg>