<svg width="24" height="24" fill="none" xmlns="http://www.w3.org/2000/svg"><path opacity=".4" d="M13.75 9.703v-2.02a.72.72 0 0 1-.725-.705V4.573a.577.577 0 0 0-.59-.573H5.791C3.702 4 2 5.653 2 7.683v2.432c0 .189.077.367.213.499.135.13.319.206.512.206.735 0 1.296.507 1.296 1.174 0 .696-.57 1.25-1.286 1.259-.397 0-.735.272-.735.667v2.406c0 2.029 1.702 3.673 3.781 3.673h6.654c.329 0 .59-.255.59-.573v-2.03c0-.394.329-.705.726-.705V14.87a.721.721 0 0 1-.726-.705v-3.758a.72.72 0 0 1 .726-.704z" fill="currentColor"></path><path d="M19.979 11.995c0 .695.58 1.25 1.286 1.259.396 0 .735.272.735.657v2.415C22 18.356 20.308 20 18.219 20h-3.153a.585.585 0 0 1-.59-.574v-2.03a.708.708 0 0 0-.726-.704V14.87c.407 0 .726-.32.726-.704v-3.758a.714.714 0 0 0-.726-.705v-2.02c.407 0 .726-.32.726-.705V4.574c0-.32.27-.574.59-.574h3.153C20.307 4 22 5.644 22 7.673v2.368a.693.693 0 0 1-.213.498.735.735 0 0 1-.512.206c-.716 0-1.296.565-1.296 1.25z" fill="currentColor"></path></svg>