<svg width="24" height="24" fill="none" xmlns="http://www.w3.org/2000/svg"><path fill-rule="evenodd" clip-rule="evenodd" d="M13.546 11.5c-3.563 0-6.777 1.634-8.81 4.26.935-3.87 4.53-6.76 8.81-6.76a1 1 0 0 0 1-1V6.077l4.824 4.175-4.824 4.211v-1.962a1 1 0 0 0-1-1zM3.78 21a1 1 0 0 0 .972-.762c.89-3.65 4.021-6.285 7.795-6.684v1.12c0 .707.42 1.335 1.093 1.64a2.032 2.032 0 0 0 2.177-.303l5.066-4.425c.393-.344.618-.83.618-1.335 0-.506-.225-.993-.618-1.337L15.816 4.49a2.032 2.032 0 0 0-2.177-.304c-.674.305-1.093.934-1.093 1.64v1.218C6.922 7.537 2.5 12.15 2.5 17.75c0 .81.104 1.646.308 2.486A.997.997 0 0 0 3.78 21z" fill="currentColor"></path></svg>