<svg class="VariantDrawer_checkmark__1G2Vk" width="16" height="16" viewBox="0 0 16 16" fill="none" xmlns="http://www.w3.org/2000/svg"><path fill-rule="evenodd" clip-rule="evenodd" d="M10.8638 6.40352L7.81849 10.4035C7.69316 10.5682 7.49916 10.6655 7.29249 10.6668H7.28783C7.08316 10.6668 6.88983 10.5722 6.76316 10.4108L5.14183 8.33952C4.91516 8.05018 4.96583 7.63085 5.25583 7.40418C5.54516 7.17685 5.96516 7.22752 6.19183 7.51818L7.28049 8.90885L9.80316 5.59618C10.0258 5.30352 10.4438 5.24618 10.7378 5.46952C11.0305 5.69285 11.0872 6.11085 10.8638 6.40352ZM8.00065 1.3335C4.31865 1.3335 1.33398 4.31816 1.33398 8.00016C1.33398 11.6815 4.31865 14.6668 8.00065 14.6668C11.6827 14.6668 14.6673 11.6815 14.6673 8.00016C14.6673 4.31816 11.6827 1.3335 8.00065 1.3335Z" fill="#16884A"></path><mask id="mask0_18323:49922" maskUnits="userSpaceOnUse" x="1" y="1" width="14" height="14" style="mask-type: alpha;"><path fill-rule="evenodd" clip-rule="evenodd" d="M10.8638 6.40352L7.81849 10.4035C7.69316 10.5682 7.49916 10.6655 7.29249 10.6668H7.28783C7.08316 10.6668 6.88983 10.5722 6.76316 10.4108L5.14183 8.33952C4.91516 8.05018 4.96583 7.63085 5.25583 7.40418C5.54516 7.17685 5.96516 7.22752 6.19183 7.51818L7.28049 8.90885L9.80316 5.59618C10.0258 5.30352 10.4438 5.24618 10.7378 5.46952C11.0305 5.69285 11.0872 6.11085 10.8638 6.40352ZM8.00065 1.3335C4.31865 1.3335 1.33398 4.31816 1.33398 8.00016C1.33398 11.6815 4.31865 14.6668 8.00065 14.6668C11.6827 14.6668 14.6673 11.6815 14.6673 8.00016C14.6673 4.31816 11.6827 1.3335 8.00065 1.3335Z" fill="white"></path></mask><g mask="url(#mask0_18323:49922)"><rect width="16" height="16" fill="#16884A"></rect></g></svg>